<?xml version="1.0" encoding="UTF-8"?>
<!DOCTYPE svg
PUBLIC "-//W3C//DTD SVG 1.1//EN"
       "http://www.w3.org/Graphics/SVG/1.1/DTD/svg11.dtd">
<svg viewBox="21 -15 1040 494" width="1019px" height="509px" xmlns="http://www.w3.org/2000/svg" version="1.1">
   <line x1="300" y1="436" x2="290" y2="436" style="stroke:#cb0;stroke-width:1;"/>
   <line x1="175" y1="30" x2="165" y2="30" style="stroke:#cb0;stroke-width:1;"/>
   <line x1="290" y1="436" x2="175" y2="30" style="stroke:#cb0;stroke-width:1;"/>
   <line x1="292.5" y1="436" x2="296.03553390593" y2="439.53553390593" style="stroke:#cb0;stroke-width:2;"/>
   <line x1="292.5" y1="436" x2="296.03553390593" y2="432.46446609407" style="stroke:#cb0;stroke-width:2;"/>
   <line x1="170" y1="30" x2="173.53553390593" y2="33.535533905933" style="stroke:#cb0;stroke-width:2;"/>
   <line x1="170" y1="30" x2="173.53553390593" y2="26.464466094067" style="stroke:#cb0;stroke-width:2;"/>
   <line x1="391" y1="456" x2="401" y2="456" style="stroke:#333;stroke-width:1;"/>
   <line x1="554" y1="30" x2="564" y2="30" style="stroke:#333;stroke-width:1;"/>
   <line x1="401" y1="456" x2="554" y2="30" style="stroke:#333;stroke-width:1;"/>
   <line x1="398.5" y1="456" x2="394.96446609407" y2="459.53553390593" style="stroke:#333;stroke-width:2;"/>
   <line x1="398.5" y1="456" x2="394.96446609407" y2="452.46446609407" style="stroke:#333;stroke-width:2;"/>
   <line x1="559" y1="30" x2="555.46446609407" y2="33.535533905933" style="stroke:#333;stroke-width:2;"/>
   <line x1="559" y1="30" x2="555.46446609407" y2="26.464466094067" style="stroke:#333;stroke-width:2;"/>
   <line x1="939" y1="50" x2="929" y2="50" style="stroke:#bbb;stroke-width:1;"/>
   <line x1="934" y1="429" x2="944" y2="429" style="stroke:#bbb;stroke-width:1;"/>
   <line x1="929" y1="50" x2="934" y2="429" style="stroke:#bbb;stroke-width:1;"/>
   <line x1="931.5" y1="50" x2="935.03553390593" y2="53.535533905933" style="stroke:#bbb;stroke-width:2;"/>
   <line x1="931.5" y1="50" x2="935.03553390593" y2="46.464466094067" style="stroke:#bbb;stroke-width:2;"/>
   <line x1="939" y1="429" x2="935.46446609407" y2="432.53553390593" style="stroke:#bbb;stroke-width:2;"/>
   <line x1="939" y1="429" x2="935.46446609407" y2="425.46446609407" style="stroke:#bbb;stroke-width:2;"/>
   <rect width="90" height="20" x="564" y="0" style="fill:#007;stroke:black;"/>
   <text width="90" height="20" x="569" y="14" style="fill:#fff;" font-family="Arial" font-size="16px"> actors</text>
   <rect width="90" height="20" x="564" y="20" style="fill:#aea;stroke:black;"/>
   <text width="90" height="20" x="569" y="34" style="fill:black;" font-family="Arial" font-size="16px">id</text>
   <rect width="90" height="20" x="564" y="40" style="fill:none;stroke:black;"/>
   <text width="90" height="20" x="569" y="54" style="fill:black;" font-family="Arial" font-size="16px">actor_name</text>
   <rect width="90" height="20" x="564" y="60" style="fill:none;stroke:black;"/>
   <text width="90" height="20" x="569" y="74" style="fill:black;" font-family="Arial" font-size="16px">birth_year</text>
   <rect width="90" height="20" x="564" y="80" style="fill:none;stroke:black;"/>
   <text width="90" height="20" x="569" y="94" style="fill:black;" font-family="Arial" font-size="16px">country</text>
   <rect width="90" height="20" x="564" y="100" style="fill:none;stroke:black;"/>
   <text width="90" height="20" x="569" y="114" style="fill:black;" font-family="Arial" font-size="16px">img</text>
   <rect width="129" height="20" x="36" y="0" style="fill:#007;stroke:black;"/>
   <text width="129" height="20" x="41" y="14" style="fill:#fff;" font-family="Arial" font-size="16px"> movies</text>
   <rect width="129" height="20" x="36" y="20" style="fill:#aea;stroke:black;"/>
   <text width="129" height="20" x="41" y="34" style="fill:black;" font-family="Arial" font-size="16px">id</text>
   <rect width="129" height="20" x="36" y="40" style="fill:none;stroke:black;"/>
   <text width="129" height="20" x="41" y="54" style="fill:black;" font-family="Arial" font-size="16px">title</text>
   <rect width="129" height="20" x="36" y="60" style="fill:none;stroke:black;"/>
   <text width="129" height="20" x="41" y="74" style="fill:black;" font-family="Arial" font-size="16px">release_year</text>
   <rect width="129" height="20" x="36" y="80" style="fill:none;stroke:black;"/>
   <text width="129" height="20" x="41" y="94" style="fill:black;" font-family="Arial" font-size="16px">country</text>
   <rect width="129" height="20" x="36" y="100" style="fill:none;stroke:black;"/>
   <text width="129" height="20" x="41" y="114" style="fill:black;" font-family="Arial" font-size="16px">director</text>
   <rect width="129" height="20" x="36" y="120" style="fill:none;stroke:black;"/>
   <text width="129" height="20" x="41" y="134" style="fill:black;" font-family="Arial" font-size="16px">description</text>
   <rect width="129" height="20" x="36" y="140" style="fill:none;stroke:black;"/>
   <text width="129" height="20" x="41" y="154" style="fill:black;" font-family="Arial" font-size="16px">rating</text>
   <rect width="129" height="20" x="36" y="160" style="fill:none;stroke:black;"/>
   <text width="129" height="20" x="41" y="174" style="fill:black;" font-family="Arial" font-size="16px">budget</text>
   <rect width="129" height="20" x="36" y="180" style="fill:none;stroke:black;"/>
   <text width="129" height="20" x="41" y="194" style="fill:black;" font-family="Arial" font-size="16px">duration_minutes</text>
   <rect width="129" height="20" x="36" y="200" style="fill:none;stroke:black;"/>
   <text width="129" height="20" x="41" y="214" style="fill:black;" font-family="Arial" font-size="16px">img</text>
   <rect width="91" height="20" x="300" y="406" style="fill:#007;stroke:black;"/>
   <text width="91" height="20" x="305" y="420" style="fill:#fff;" font-family="Arial" font-size="16px"> movie_actor</text>
   <rect width="91" height="20" x="300" y="426" style="fill:#aea;stroke:black;"/>
   <text width="91" height="20" x="305" y="440" style="fill:black;" font-family="Arial" font-size="16px">movie_id</text>
   <rect width="91" height="20" x="300" y="446" style="fill:#aea;stroke:black;"/>
   <text width="91" height="20" x="305" y="460" style="fill:black;" font-family="Arial" font-size="16px">actor_id</text>
   <rect width="58" height="20" x="939" y="0" style="fill:#007;stroke:black;"/>
   <text width="58" height="20" x="944" y="14" style="fill:#fff;" font-family="Arial" font-size="16px"> queries</text>
   <rect width="58" height="20" x="939" y="20" style="fill:#aea;stroke:black;"/>
   <text width="58" height="20" x="944" y="34" style="fill:black;" font-family="Arial" font-size="16px">id</text>
   <rect width="58" height="20" x="939" y="40" style="fill:none;stroke:black;"/>
   <text width="58" height="20" x="944" y="54" style="fill:black;" font-family="Arial" font-size="16px">user_id</text>
   <rect width="58" height="20" x="939" y="60" style="fill:none;stroke:black;"/>
   <text width="58" height="20" x="944" y="74" style="fill:black;" font-family="Arial" font-size="16px">title</text>
   <rect width="58" height="20" x="939" y="80" style="fill:none;stroke:black;"/>
   <text width="58" height="20" x="944" y="94" style="fill:black;" font-family="Arial" font-size="16px">query</text>
   <rect width="81" height="20" x="944" y="399" style="fill:#007;stroke:black;"/>
   <text width="81" height="20" x="949" y="413" style="fill:#fff;" font-family="Arial" font-size="16px"> users</text>
   <rect width="81" height="20" x="944" y="419" style="fill:#aea;stroke:black;"/>
   <text width="81" height="20" x="949" y="433" style="fill:black;" font-family="Arial" font-size="16px">id</text>
   <rect width="81" height="20" x="944" y="439" style="fill:none;stroke:black;"/>
   <text width="81" height="20" x="949" y="453" style="fill:black;" font-family="Arial" font-size="16px">username</text>
   <rect width="81" height="20" x="944" y="459" style="fill:none;stroke:black;"/>
   <text width="81" height="20" x="949" y="473" style="fill:black;" font-family="Arial" font-size="16px">pass</text>
</svg>
